<svg xmlns="http://www.w3.org/2000/svg" xml:space="preserve" width="1500" height="1500" data-id="lg_WvcKmF9cjIyPMznAkE" data-version="1" viewBox="0 0 1500 1500"><path fill="#fff" stroke="transparent" d="M0 0h1500v1500H0z"/><g data-padding="20"><g transform="translate(-578.546 -589.73)scale(1.73087)"><rect width="586.53" height="221.48" x="219.957" y="592.41" fill="none" rx="0" ry="0" transform="matrix(.95 0 0 .95 280 106.03)"/><path fill="#065431" d="M544.25 809.192q10.83 1.12 16.15 1.12 5.33 0 16.16-1.5 3.37 1.13 3.93 2.81t.37 3.45q-.19 1.78.19 3.46.37 1.68 3.55 2.8 1.68.56 1.03 3.27-.66 2.71-3.09 5.89-6.16 8.03-14.57 11.2-13.45 3.37-21.11 3.93-12.7.93-27.65-.94-16.44-2.99-15.88-13.63 0-39.24 17.19-78.84 5.6-12.89 12.7-27.09 1.5-2.99 1.78-6.72.28-3.74.47-7.29.18-3.55 1.12-6.35.93-2.8 3.92-3.92 38.86-15.51 61.46-11.96 7.85.19 10.37 5.32 2.52 5.14.56 11.49t-7.66 11.96q-5.7 5.6-14.29 6.91-11.02 3.18-13.45 4.3-4.67 2.24-6.73 5.98-2.61 4.11-4.85 7.84-2.25 3.74-3.18 8.04l-.75 4.11q3.55 1.68 8.69 1.02 5.14-.65 9.53-1.31 4.39-.65 7.1-.09t1.12 5.51-5.79 11.12q-4.21 6.16-11.87 8.97-4.85.93-6.63 1.4-1.77.46-2.71.65-1.31.19-7.47.56-8.78 14.95-10.65 23.17-.75 3.36.94 3.36m115.45-22.42-31.95-.56q-.37.19-.75.19-.37 0-.93.18l-.19-.37q-5.97 0-10.36-1.77-4.39-1.78-5.8-4.58-1.4-2.8.75-5.98t9.25-5.79l3.36-.37q1.31-4.86 7.57-9.16t18.4-5.79l10.83-.37h8.41q4.48 0 8.97.18 9.9-2.43 20.36.56 12.7 3.93 11.96 13.45-.38 4.86-6.35 10.65-3.18 1.12-6.17 2.71t-8.22 3.46q-10.27 3.36-29.14 3.36m126.66-45.76q7.28.93 9.81 5.14 2.52 4.2 1.96 8.97-.56 4.76-3.46 8.59-2.89 3.83-6.44 4.02-1.31 3.92-4.11 5.41-2.81 1.5-6.17 2.06t-7 1.21q-3.65.66-6.82 3.27-3.18 2.62-5.33 5.14-2.14 2.52-3.45 4.95-2.24 4.11-3.93 10.09-.37 4.11 3.93 7.66 5.04 3.92 11.02 3.45 5.98-.46 9.62.56 3.64 1.03 5.51 2.9 4.11 4.3-.75 9.9-9.34 14.95-31.38 17.75-6.54.93-13.08.47-6.54-.47-12.7-4.96-6.17-4.48-9.72-12.14-7.84-17.56 1.31-40.91 8.78-21.86 26.34-33.63 19.25-13.08 44.84-9.9m32.69 11.95q3.92-2.81 9.72-1.31 1.12.19 2.24.19 4.11-8.41 14.2-8.78 2.61-.19 7.28-.94t11.3.38q6.64 1.12 11.68 3.92 11.02 5.98 13.26 17.19 4.49 16.44-1.3 35.86-6.17 21.49-20.93 34.38-6.72 5.98-14.2 7.56-7.47 1.59-13.45 1.78-5.97.19-10.92.09-4.96-.09-9.63-1.02-10.08-2.06-16.62-9.53-7.66-8.41-6.54-26.16.75-15.69 7.94-31.66t15.97-21.95m32.88 37.55q-4.67 1.49-8.78 1.3-2.05 2.06-3.64 4.39-1.59 2.34-4.21 4.3-2.61 1.96-2.61 1.59-3.18 4.48-5.23 9.25-2.06 4.76 0 9.62 7.47.75 11.02-.38 3.55-1.12 6.63-4.29 3.09-3.18 4.77-7.48 3.36-8.03 2.05-18.3m64.83-39.04q.37-3.55 4.48-5.79t9.15-2.24q5.05 0 9.81 2.33 4.77 2.34 6.45 7.94 15.88-13.82 28.95-10.64 4.49.93 7.66 5.23 9.53-9.16 21.11-11.96 14.57-.56 20.93 6.73.93.93 1.86 2.05 2.62 2.8 2.99 3.74 3.37 5.23 1.87 24.1-2.05 24.47-9.34 49.13-3.92 12.52-7.1 12.89-1.87.37-3.45 0-1.59-.37-2.81-.47-1.21-.09-1.4 2.15-3.73 4.86-11.39 4.86-7.48 0-12.71-4.67-5.79-4.86-4.01-11.49 1.77-6.63 4.01-13.64 2.25-7 4.86-14.48 4.48-13.07 9.9-27.27-3.92 4.48-10.65 16.9-6.72 12.43-8.4 14.86-3.18 6.35-5.23 9.99-2.06 3.64-5.52 5.79-3.45 2.15-6.35 2.71-2.89.56-5.51.19-6.16-.94-8.78-5.23-.56-1.5-1.12-2.99-.56-1.5-.93-4.11-.56-5.79 1.49-18.87l-.37.56q2.24-2.24 1.49-1.12-7.47 10.65-8.97 13.64-1.49 2.99-3.17 6.63t-3.92 8.41q-2.25 4.76-3.55 8.5-1.31 3.73-3.18 7.28-8.41 14.57-29.52 11.77-4.48-.56-7.66-2.15-3.17-1.59-2.61-4.76 1.49-7.47 6.91-24.85 10.65-34.37 12.7-44.27 1.31-3.37 2.34-6.92t2.15-6.16q2.24-6.17 6.54-4.3m64.82 46.15v.37q.38-.75 0-.37"/></g><path fill="transparent" stroke="transparent" stroke-width="1.795" d="M250 561.49h1000v377.02H250z"/></g></svg>